<?xml version="1.0" standalone="no"?>
<!DOCTYPE svg PUBLIC "-//W3C//DTD SVG 20010904//EN"
 "http://www.w3.org/TR/2001/REC-SVG-20010904/DTD/svg10.dtd">
<svg version="1.0" xmlns="http://www.w3.org/2000/svg"
 width="470.000000pt" height="470.000000pt" viewBox="0 0 470.000000 470.000000"
 preserveAspectRatio="xMidYMid meet">
<metadata>
Created by potrace 1.11, written by Peter Selinger 2001-2013
</metadata>
<g transform="translate(0.000000,470.000000) scale(0.100000,-0.100000)"
fill="#000000" stroke="none">
<path d="M1071 4346 c-94 -127 -150 -218 -157 -252 -4 -19 -2 -105 4 -189 13
-182 33 -253 122 -419 44 -84 219 -464 267 -583 3 -9 -5 -13 -24 -13 -42 0
-69 -24 -87 -77 -29 -84 -31 -157 -6 -278 14 -66 22 -144 22 -195 0 -66 5
-103 26 -165 28 -86 33 -177 17 -322 l-8 -73 39 -38 c22 -22 45 -41 52 -43 10
-3 8 -18 -8 -64 -30 -85 -35 -160 -16 -214 9 -23 56 -94 105 -155 133 -166
270 -354 297 -408 13 -26 44 -106 69 -178 51 -151 84 -217 135 -269 72 -74
142 -87 272 -51 94 26 208 26 316 0 138 -33 192 -25 266 40 47 42 72 91 131
260 26 74 62 164 80 200 18 36 114 169 213 297 98 127 184 246 191 264 16 45
14 75 -10 180 -21 89 -21 94 -4 104 62 36 70 50 69 122 -1 37 -5 102 -9 144
-7 67 -4 87 20 170 20 69 29 122 31 203 2 60 12 136 21 170 20 73 22 222 4
285 -16 56 -51 91 -91 91 -16 0 -30 2 -30 3 0 7 158 354 249 545 125 266 131
285 143 482 10 156 10 168 -9 210 -20 46 -170 260 -182 260 -3 0 -5 -62 -3
-137 3 -122 0 -150 -22 -238 -46 -178 -150 -361 -336 -593 -36 -44 -73 -83
-82 -85 -10 -3 -55 24 -115 70 -142 108 -258 183 -317 203 -131 46 -523 52
-678 11 -103 -27 -128 -41 -312 -174 -96 -70 -165 -113 -174 -110 -8 3 -49 50
-92 104 -188 235 -280 397 -322 565 -18 72 -22 117 -23 241 0 84 -1 153 -2
153 -1 0 -20 -24 -42 -54z m2601 -98 c83 -109 88 -123 88 -232 0 -113 -18
-293 -32 -321 -25 -49 -282 -485 -284 -482 -2 1 31 106 72 231 41 126 73 231
71 233 -4 3 -81 -190 -165 -417 -55 -146 -120 -293 -121 -272 -1 7 22 86 49
175 28 89 50 166 50 172 -1 23 -23 -34 -110 -280 -49 -143 -93 -267 -96 -275
-9 -24 -54 35 -54 71 0 16 29 102 65 191 36 89 65 169 64 178 0 8 -36 -57 -81
-144 -60 -119 -82 -156 -89 -144 -23 42 -69 201 -69 241 0 69 13 93 57 107 86
29 142 89 315 340 149 216 211 391 212 597 1 57 2 103 2 103 1 0 26 -33 56
-72z m-2550 -268 c48 -164 85 -234 228 -434 140 -196 193 -249 263 -263 36 -7
57 -38 57 -86 0 -42 -60 -287 -70 -287 -3 0 -41 72 -85 160 -77 154 -115 211
-76 113 10 -27 42 -105 70 -176 28 -70 51 -141 51 -157 0 -35 -45 -94 -54 -70
-49 135 -88 246 -138 388 -33 95 -63 170 -65 168 -3 -3 18 -80 47 -171 28 -92
49 -169 47 -172 -9 -9 -58 109 -168 403 -107 289 -128 340 -129 319 0 -5 36
-120 80 -255 43 -134 78 -246 76 -247 -11 -11 -269 439 -290 505 -19 62 -38
325 -26 376 8 38 41 90 109 176 l36 45 6 -125 c5 -88 14 -150 31 -210z m1499
-520 c29 -6 57 -14 62 -19 6 -6 -5 -27 -27 -54 -56 -69 -46 -92 12 -27 42 47
51 52 75 46 15 -3 27 -10 27 -14 0 -4 -22 -34 -50 -67 -72 -85 -61 -103 14
-21 72 79 75 79 144 1 29 -33 62 -98 122 -238 117 -273 159 -338 210 -322 25
8 25 8 -2 -62 -27 -73 -28 -136 -1 -188 31 -60 35 -151 8 -161 -15 -6 -106 49
-157 95 -34 31 -37 77 -11 229 16 98 16 107 0 170 -17 64 -55 138 -98 191 -35
42 -32 14 4 -46 69 -114 83 -232 48 -408 -24 -118 -18 -133 80 -200 46 -33 75
-59 77 -73 5 -30 -35 -79 -88 -110 -44 -26 -48 -27 -198 -25 -188 3 -219 14
-304 106 l-58 62 0 -32 c0 -19 10 -43 25 -61 l25 -30 -25 -53 c-32 -70 -40
-142 -24 -215 l12 -59 12 55 c19 92 52 139 123 174 28 15 61 17 220 14 178 -3
189 -2 225 19 42 25 44 21 23 -51 -31 -101 -94 -148 -228 -172 -112 -20 -188
-10 -251 33 -27 18 -52 32 -54 29 -3 -2 11 -21 29 -41 33 -37 36 -38 134 -47
181 -17 279 8 336 86 37 50 47 76 58 144 7 40 18 64 46 94 48 54 76 118 81
192 5 52 1 68 -21 110 -34 65 -33 95 9 183 42 85 89 143 117 143 32 0 95 -70
104 -115 6 -32 2 -49 -25 -100 -37 -74 -39 -91 -6 -50 28 34 28 32 12 -78 -7
-43 -16 -78 -22 -79 -18 -3 -55 64 -55 99 0 28 21 116 46 195 11 37 -15 9 -43
-45 -21 -41 -27 -66 -27 -122 -1 -70 6 -90 60 -188 23 -41 6 -79 -69 -151 -83
-80 -107 -131 -117 -249 -10 -119 -26 -154 -106 -237 -68 -71 -101 -90 -144
-83 -26 3 -36 10 -116 78 -40 34 -54 40 -91 40 -38 0 -49 -5 -75 -33 -35 -40
-30 -53 8 -23 46 36 79 28 139 -34 29 -30 69 -62 90 -71 108 -45 243 51 306
215 11 30 24 98 29 154 9 109 35 167 95 213 l30 23 -1 -187 c-1 -194 -7 -227
-48 -261 -13 -11 -17 -9 -26 14 -5 14 -10 63 -11 108 l-1 82 -16 -35 c-23 -50
-21 -158 6 -257 39 -147 31 -182 -74 -327 -106 -144 -288 -370 -291 -360 -2 6
40 101 92 213 52 112 93 206 90 209 -7 8 -2 17 -124 -220 -67 -130 -118 -218
-127 -218 -8 0 -14 6 -14 13 0 7 31 124 68 260 38 136 66 247 63 247 -3 0 -40
-109 -80 -243 -41 -133 -76 -244 -78 -246 -2 -3 -8 0 -13 5 -6 6 7 72 36 178
56 213 53 228 -10 51 l-15 -40 0 45 c0 25 12 83 28 130 28 81 28 84 6 56 -13
-16 -33 -63 -45 -105 -25 -84 -49 -141 -59 -141 -4 0 -18 45 -31 101 -13 55
-27 102 -31 105 -9 5 -23 -41 -45 -153 -11 -56 -23 -88 -38 -101 -11 -11 -63
-32 -115 -47 -117 -34 -190 -31 -333 15 l-96 30 -22 93 c-34 147 -41 170 -49
161 -4 -5 -18 -49 -31 -99 -13 -49 -26 -94 -30 -98 -8 -9 -31 43 -74 165 -15
42 -33 82 -41 88 -8 6 -4 -13 10 -52 23 -64 50 -197 42 -205 -3 -2 -17 33 -32
79 -55 165 -48 98 10 -117 25 -90 32 -145 18 -145 -5 0 -37 96 -72 213 -76
249 -80 261 -87 255 -4 -5 44 -191 106 -403 24 -83 24 -91 5 -98 -10 -5 -44
53 -130 223 -64 127 -120 230 -125 230 -5 0 34 -91 87 -202 52 -112 97 -212
100 -223 6 -26 -52 40 -204 234 -67 86 -134 177 -148 204 -38 69 -43 138 -15
239 31 109 32 219 5 270 l-20 37 0 -109 c0 -59 -3 -112 -7 -116 -11 -10 -44
22 -57 54 -8 18 -10 93 -9 211 l3 184 34 -29 c48 -40 73 -103 82 -209 9 -108
35 -182 90 -259 63 -88 157 -131 234 -106 20 7 61 37 94 71 67 67 106 77 148
37 17 -16 23 -18 23 -6 0 22 -42 57 -75 64 -41 8 -70 -6 -140 -65 -52 -45 -64
-51 -104 -51 -43 0 -49 4 -117 73 -39 40 -79 87 -88 105 -9 18 -21 76 -26 131
-12 128 -35 176 -122 261 -83 80 -93 112 -55 168 68 98 72 174 16 287 -17 36
-33 64 -35 62 -2 -1 8 -40 22 -87 13 -46 24 -100 24 -121 0 -37 -37 -106 -55
-102 -8 2 -32 120 -34 173 -1 8 12 -1 29 -20 37 -45 37 -37 0 31 -37 67 -40
135 -9 185 57 93 120 64 192 -88 44 -91 46 -122 11 -189 -23 -43 -26 -58 -21
-108 8 -72 35 -138 74 -177 41 -40 53 -66 53 -111 1 -77 64 -168 146 -209 33
-16 61 -19 174 -19 153 0 188 12 224 75 l20 35 -25 -21 c-56 -50 -91 -64 -164
-64 -86 1 -211 22 -253 44 -41 21 -80 74 -98 132 -21 72 -19 76 24 51 35 -21
46 -22 219 -19 196 3 231 -4 281 -51 32 -29 60 -86 68 -136 9 -59 21 -59 29 0
9 66 -2 153 -26 208 -24 54 -24 63 1 103 11 18 20 44 20 58 0 22 -6 19 -58
-37 -80 -87 -114 -99 -289 -108 -162 -8 -199 2 -266 69 -56 56 -51 72 48 144
l85 62 0 47 c0 27 -9 99 -20 161 -23 134 -17 181 32 282 18 36 39 78 46 95
l14 30 -21 -19 c-12 -11 -42 -58 -68 -105 -55 -100 -58 -128 -34 -321 8 -63
11 -127 8 -141 -8 -32 -158 -135 -182 -125 -22 8 -19 84 5 146 26 65 26 145 0
212 -11 29 -20 54 -20 55 0 0 9 -1 20 -4 31 -8 67 22 96 80 15 28 60 128 101
221 40 93 84 188 98 211 24 43 97 115 115 115 5 0 36 -32 67 -70 32 -39 59
-66 61 -61 5 14 -11 40 -57 96 -31 37 -38 52 -29 62 21 26 52 13 93 -39 29
-36 41 -45 43 -34 2 9 -13 37 -33 62 -45 54 -40 64 42 74 89 11 473 11 534 0z
m-517 -2495 c59 -148 66 -187 39 -217 -24 -26 -38 -23 -73 20 -63 76 -110 312
-89 444 6 34 13 66 16 71 3 6 16 -32 29 -84 12 -52 48 -157 78 -234z m611 278
c12 -59 6 -221 -11 -293 -19 -84 -30 -115 -67 -172 -23 -39 -34 -48 -57 -48
-20 0 -31 6 -35 21 -15 45 -5 88 40 180 31 64 57 141 78 227 18 71 35 128 38
126 4 -2 10 -21 14 -41z m-780 -107 c17 -26 12 -67 -10 -86 -10 -8 -15 -3 -24
21 -26 74 -2 120 34 65z m875 -5 c0 -16 -6 -44 -14 -62 l-14 -33 -16 32 c-21
40 -20 48 4 72 28 28 40 25 40 -9z m-694 -66 c11 -29 -2 -37 -19 -11 -15 23
-16 26 -2 26 9 0 18 -7 21 -15z m487 -11 c-9 -15 -19 -21 -21 -15 -6 19 6 41
23 41 14 0 13 -3 -2 -26z m-390 -11 c15 -9 6 -33 -12 -33 -33 0 -51 11 -51 31
0 16 5 18 28 13 15 -4 30 -9 35 -11z m337 -2 c0 -19 -52 -46 -64 -34 -13 13
-5 34 17 43 35 14 47 12 47 -9z m-605 -107 c-17 -13 -113 -30 -121 -21 -2 2
26 30 63 62 l68 58 3 -44 c2 -31 -1 -47 -13 -55z m340 86 c12 -19 -3 -39 -23
-33 -14 3 -18 11 -15 24 6 21 28 26 38 9z m165 6 c0 -2 3 -11 6 -19 3 -9 -2
-16 -15 -20 -20 -5 -36 16 -25 34 5 9 34 13 34 5z m373 -59 c32 -27 55 -52 53
-55 -10 -9 -127 21 -134 35 -12 20 -2 84 12 76 6 -3 37 -29 69 -56z m-438 33
c0 -22 -29 -18 -33 3 -3 14 1 18 15 15 10 -2 18 -10 18 -18z m-180 -23 c83
-28 226 -27 315 1 35 12 65 20 66 19 1 -1 -16 -38 -39 -82 l-42 -80 -155 0
-155 0 -42 80 c-48 90 -50 100 -25 90 9 -4 44 -17 77 -28z m-201 -148 c3 -13
-3 -6 -13 16 -11 22 -20 47 -20 55 0 17 23 -34 33 -71z m711 34 c-9 -15 -13
-19 -10 -8 4 11 10 29 13 40 3 11 7 14 9 8 3 -7 -3 -24 -12 -40z m-758 -19
c66 -102 84 -125 110 -135 16 -6 131 -9 299 -7 l272 3 26 24 c15 14 42 53 61
86 34 62 61 93 71 83 8 -8 -55 -159 -84 -201 -49 -73 -82 -77 -265 -40 -81 17
-122 15 -298 -18 -82 -16 -118 -3 -160 53 -22 32 -89 184 -89 205 0 17 30 -11
57 -53z m-89 33 c6 -7 24 -50 41 -97 38 -103 72 -153 118 -175 33 -16 39 -16
138 9 129 33 240 34 346 6 120 -33 124 -33 162 -15 45 21 78 69 117 170 44
115 51 124 77 107 9 -5 2 -43 -27 -142 -56 -197 -60 -207 -98 -251 -65 -76
-155 -98 -266 -64 -63 19 -185 19 -256 0 -107 -29 -184 -14 -248 48 -36 34
-59 72 -74 121 -18 61 -68 266 -68 281 0 18 24 20 38 2z m626 -79 c3 -7 7 -25
10 -40 6 -27 5 -28 -33 -28 -41 0 -50 10 -43 47 5 29 59 46 66 21z m-216 -30
c-3 -31 -5 -33 -47 -36 -37 -3 -43 -1 -37 13 3 9 6 25 6 36 0 16 7 19 41 19
39 0 40 -1 37 -32z m112 -3 c0 -28 -4 -35 -20 -35 -15 0 -20 7 -20 28 0 32 7
42 27 42 8 0 13 -12 13 -35z m-64 -12 c-6 -14 -9 -15 -16 -4 -11 19 -1 46 13
32 5 -5 7 -18 3 -28z"/>
<path d="M1890 1860 c0 -6 31 -10 78 -10 95 0 137 -11 175 -47 l30 -28 -24 45
-24 45 -118 3 c-75 2 -117 -1 -117 -8z"/>
<path d="M2567 1852 c-10 -10 -17 -29 -17 -43 l0 -24 18 22 c23 31 71 43 164
43 42 0 80 5 83 10 4 6 -36 10 -113 10 -102 0 -121 -3 -135 -18z"/>
<path d="M1899 1657 c-25 -19 -39 -53 -39 -96 0 -57 35 -93 120 -126 61 -23
80 -37 147 -109 43 -46 93 -91 111 -100 51 -26 121 -31 185 -12 49 14 68 28
149 110 82 82 102 96 166 120 39 15 79 37 87 49 15 22 20 84 9 125 -7 25 -51
52 -84 52 -28 0 -25 -14 5 -28 37 -17 62 -74 47 -107 -11 -23 -16 -25 -46 -20
-19 4 -44 4 -57 0 -12 -4 -74 -55 -138 -114 -146 -135 -155 -141 -211 -141
-55 0 -64 6 -208 137 -110 100 -136 115 -212 125 -39 5 -40 56 -1 101 17 19
31 37 31 41 0 11 -44 6 -61 -7z"/>
<path d="M1955 4376 c10 -14 22 -26 27 -26 13 0 -15 43 -31 48 -9 3 -7 -5 4
-22z"/>
<path d="M2960 4393 c0 -12 38 -48 45 -41 3 2 -6 15 -20 28 -14 13 -25 19 -25
13z"/>
<path d="M1280 4381 c0 -12 19 -18 83 -27 67 -9 60 11 -10 25 -68 13 -73 14
-73 2z"/>
<path d="M1870 4346 c0 -41 -2 -44 -31 -50 -64 -13 -72 -9 -67 29 3 24 0 35
-9 35 -8 0 -13 -14 -13 -39 0 -35 -3 -39 -30 -44 -16 -4 -30 -11 -30 -18 0 -7
11 -8 29 -4 28 6 28 5 33 -45 7 -75 26 -90 110 -90 39 0 68 4 68 10 0 6 -28
10 -64 10 -39 0 -67 5 -73 13 -12 14 -23 106 -14 111 3 2 27 7 54 11 45 7 47
6 47 -16 0 -38 -15 -53 -44 -45 -28 7 -36 -8 -10 -18 47 -18 74 5 74 63 0 29
3 31 35 31 19 0 35 5 35 10 0 6 -16 10 -35 10 -34 0 -35 1 -35 40 0 29 -4 40
-15 40 -11 0 -15 -12 -15 -44z"/>
<path d="M2252 4268 c-23 -68 -42 -129 -42 -135 0 -25 18 -13 29 19 14 40 59
88 83 88 19 0 35 -41 23 -60 -4 -6 1 -22 9 -35 30 -46 101 -26 126 35 14 35 4
55 -14 26 -30 -49 -49 -67 -70 -64 -17 2 -22 12 -26 52 -6 60 -25 76 -71 59
-24 -9 -30 -9 -26 0 2 7 12 36 22 65 11 28 24 52 29 52 11 0 -13 20 -24 20 -3
0 -24 -55 -48 -122z"/>
<path d="M2790 4360 c0 -28 -3 -30 -35 -30 -19 0 -35 -4 -35 -10 0 -5 14 -10
31 -10 31 0 31 -1 24 -37 -4 -21 -15 -63 -26 -93 -12 -34 -15 -58 -9 -64 12
-12 40 60 64 167 4 15 12 27 19 27 27 0 87 22 82 29 -2 5 -25 6 -50 3 -46 -5
-46 -4 -39 22 5 20 2 26 -10 26 -11 0 -16 -9 -16 -30z"/>
<path d="M3342 4305 l6 -85 -32 0 c-41 0 -76 -25 -76 -55 0 -13 10 -31 22 -39
44 -31 108 -13 108 29 0 32 17 32 63 0 24 -16 39 -20 43 -13 8 13 -30 44 -73
59 -31 10 -33 14 -33 55 l0 44 50 0 c37 0 50 4 50 15 0 11 -10 13 -50 8 l-50
-6 0 37 c0 27 -4 36 -16 36 -15 0 -16 -11 -12 -85z m8 -129 c0 -32 -24 -50
-55 -42 -55 14 -38 66 21 66 29 0 34 -3 34 -24z"/>
<path d="M1910 4374 c0 -5 9 -20 20 -34 14 -18 20 -21 20 -9 0 9 -9 24 -20 34
-11 10 -20 14 -20 9z"/>
<path d="M2920 4373 c0 -5 9 -18 20 -28 11 -10 20 -14 20 -8 0 5 -9 18 -20 28
-11 10 -20 14 -20 8z"/>
<path d="M1288 4298 c-31 -7 -48 -15 -48 -25 0 -9 6 -12 18 -9 52 16 117 26
133 21 26 -9 35 -53 18 -84 -8 -14 -36 -37 -62 -50 -30 -15 -45 -27 -39 -33 6
-6 28 0 59 16 80 40 105 122 50 161 -24 17 -59 17 -129 3z"/>
<path d="M2898 4283 c-16 -2 -28 -10 -28 -17 0 -10 10 -11 43 -5 23 4 48 8 55
9 6 0 12 5 12 10 0 10 -29 11 -82 3z"/>
<path d="M2854 4185 c-10 -42 19 -65 83 -65 29 0 53 5 53 10 0 6 -22 10 -49
10 -57 0 -79 17 -61 49 9 17 8 21 -4 21 -9 0 -18 -11 -22 -25z"/>
</g>
</svg>
